<svg xmlns="http://www.w3.org/2000/svg" viewBox="0 0 64 64">
  <defs>
    <linearGradient id="g" x1="0" y1="0" x2="1" y2="1">
      <stop offset="0%" stop-color="#0c5f72" />
      <stop offset="100%" stop-color="#bb5a24" />
    </linearGradient>
  </defs>
  <rect x="4" y="4" width="56" height="56" rx="14" fill="url(#g)" />
  <path d="M20 20h24a2 2 0 0 1 2 2v18a2 2 0 0 1-2 2H20a2 2 0 0 1-2-2V22a2 2 0 0 1 2-2Z" fill="#fff" opacity="0.95" />
  <path d="M24 28h16M24 33h16M24 38h10" stroke="#0c5f72" stroke-width="2.5" stroke-linecap="round" />
  <circle cx="44" cy="44" r="8" fill="#fff" />
  <path d="m49 49 5 5" stroke="#fff" stroke-width="3" stroke-linecap="round" />
  <circle cx="44" cy="44" r="5" fill="none" stroke="#bb5a24" stroke-width="2.6" />
</svg>
